<?xml version="1.0"?>
<svg xmlns="http://www.w3.org/2000/svg" viewBox="0 0 256 256" width="512px" height="512px" class="hovered-paths"><g><path d="M225.133,189.97a11.229,11.229,0,0,0-15.881,0l-26.061,25.5a9.624,9.624,0,0,1-6.805,2.819H126.769a11.453,11.453,0,0,1-11.55-10.718A11.25,11.25,0,0,1,126.455,195.8h20.1a10.356,10.356,0,0,0,10.431-9.984,10.221,10.221,0,0,0-10.217-10.461l-42.492,0A41.975,41.975,0,0,0,71.972,190.52h0a21.963,21.963,0,0,1-17.252,8.371H50.232v45.852H180.566a12.324,12.324,0,0,0,8.714-3.609l35.849-35.287A11.226,11.226,0,0,0,225.133,189.97Z" fill="#ffb69f" data-original="#FFB69F" class="" style="fill:#FFFFFF" data-old_color="#ffb69f"/><path d="M46.5,189.445H27.578v60.89H46.5a3.731,3.731,0,0,0,3.73-3.731V193.175A3.73,3.73,0,0,0,46.5,189.445Z" fill="#72c1e8" data-original="#72C1E8" class="" style="fill:#FFFFFF" data-old_color="#72c1e8"/><path d="M206.857,92.041a73.006,73.006,0,0,0,0-26.489H193.75a59.469,59.469,0,0,0-7.861-18.975l9.264-9.274a73.089,73.089,0,0,0-18.731-18.741l-9.264,9.284a59.64,59.64,0,0,0-18.975-7.871V6.858a74.322,74.322,0,0,0-26.5,0V19.975a59.451,59.451,0,0,0-18.975,7.871l-9.264-9.284A73.286,73.286,0,0,0,74.7,37.3l9.264,9.274a59.927,59.927,0,0,0-7.861,18.975H63a73.039,73.039,0,0,0,0,26.489H76.107a60.119,60.119,0,0,0,7.861,18.975L74.7,120.29a73.405,73.405,0,0,0,18.741,18.731l9.264-9.274a59.659,59.659,0,0,0,18.975,7.861v13.107a73.061,73.061,0,0,0,26.5,0V137.608a59.849,59.849,0,0,0,18.975-7.861l9.264,9.274a73.367,73.367,0,0,0,18.731-18.731l-9.264-9.274a59.659,59.659,0,0,0,7.861-18.975ZM134.933,116.66A37.874,37.874,0,1,1,172.8,78.792,37.873,37.873,0,0,1,134.933,116.66Z" fill="#fc5d3d" data-original="#FC5D3D" class="" style="fill:#FFFFFF" data-old_color="#fc5d3d"/><path d="M134.929,131.124a52.433,52.433,0,0,1-38.846-17.267,2.5,2.5,0,0,1,3.711-3.352,47.327,47.327,0,1,0,65.774-67.779,2.5,2.5,0,0,1,3.239-3.81,52.328,52.328,0,0,1-33.878,92.208ZM89.87,105.417a52.341,52.341,0,0,1,70.314-72.459,2.5,2.5,0,1,1-2.417,4.376,47.34,47.34,0,0,0-63.594,65.537,2.5,2.5,0,0,1-4.3,2.546Z" fill="#ffcbc2" data-original="#FFCBC2" class="" style="fill:#FFFFFF" data-old_color="#ffcbc2"/><path d="M175.283,234.377H77.789a2.5,2.5,0,1,1,0-5h97.494a2.5,2.5,0,0,1,0,5Zm-107.494,0h-6a2.5,2.5,0,1,1,0-5h6a2.5,2.5,0,0,1,0,5Z" fill="#fbe0e2" data-original="#FBE0E2" class="" style="fill:#FFFFFF" data-old_color="#fbe0e2"/><path d="M121.228,153.179a2.505,2.505,0,0,1-2.04-2.46v-11.14a62.264,62.264,0,0,1-16.1-6.67l-7.88,7.88a2.539,2.539,0,0,1-3.18.29,75.452,75.452,0,0,1-19.38-19.37,2.49,2.49,0,0,1,.29-3.19l3.21-3.21a2.562,2.562,0,0,1,3.53,0,2.5,2.5,0,0,1,0,3.54l-1.71,1.71a70.9,70.9,0,0,0,15.2,15.2l7.77-7.78a2.537,2.537,0,0,1,3.11-.34,57.225,57.225,0,0,0,18.18,7.53,2.522,2.522,0,0,1,1.96,2.44v11a71.74,71.74,0,0,0,21.5,0v-11a2.476,2.476,0,0,1,1.95-2.44,57.113,57.113,0,0,0,18.18-7.54,2.553,2.553,0,0,1,3.11.35l7.77,7.78a70.632,70.632,0,0,0,15.19-15.2l-7.77-7.78a2.483,2.483,0,0,1-.34-3.1,57.075,57.075,0,0,0,7.53-18.18,2.493,2.493,0,0,1,2.44-1.96h11a70.84,70.84,0,0,0,0-21.49h-11a2.513,2.513,0,0,1-2.44-1.95,56.809,56.809,0,0,0-7.53-18.18,2.5,2.5,0,0,1,.34-3.11l7.78-7.78a70.453,70.453,0,0,0-15.2-15.2l-7.77,7.78a2.553,2.553,0,0,1-3.11.35,56.886,56.886,0,0,0-18.18-7.54,2.522,2.522,0,0,1-1.95-2.44v-11a72.07,72.07,0,0,0-21.5,0v11a2.531,2.531,0,0,1-1.96,2.44,56.7,56.7,0,0,0-18.18,7.54,2.553,2.553,0,0,1-3.11-.35l-7.77-7.78a70.678,70.678,0,0,0-15.2,15.2l7.77,7.78a2.483,2.483,0,0,1,.34,3.1,57.413,57.413,0,0,0-7.53,18.19,2.522,2.522,0,0,1-2.44,1.95h-11a70.863,70.863,0,0,0,0,21.49h11a2.5,2.5,0,0,1,2.44,1.95,57.383,57.383,0,0,0,2.58,8.43,2.5,2.5,0,1,1-4.65,1.83,63.787,63.787,0,0,1-2.34-7.21H63a2.507,2.507,0,0,1-2.46-2.04,75.745,75.745,0,0,1,0-27.4A2.506,2.506,0,0,1,63,63.049h11.14a62.615,62.615,0,0,1,6.67-16.1l-7.87-7.88a2.488,2.488,0,0,1-.29-3.19,75.452,75.452,0,0,1,19.38-19.37,2.528,2.528,0,0,1,3.19.29l7.87,7.88a61.977,61.977,0,0,1,16.1-6.67V6.859a2.49,2.49,0,0,1,2.05-2.46,76.856,76.856,0,0,1,27.39,0,2.49,2.49,0,0,1,2.05,2.46v11.15a62.264,62.264,0,0,1,16.1,6.67l7.88-7.88a2.513,2.513,0,0,1,3.18-.29,75.139,75.139,0,0,1,19.37,19.38,2.476,2.476,0,0,1-.29,3.18l-7.87,7.88a61.917,61.917,0,0,1,6.67,16.1h11.14a2.515,2.515,0,0,1,2.46,2.04,75.745,75.745,0,0,1,0,27.41,2.515,2.515,0,0,1-2.46,2.04h-11.14a61.977,61.977,0,0,1-6.67,16.1l7.87,7.88a2.49,2.49,0,0,1,.29,3.19,75.413,75.413,0,0,1-19.37,19.37,2.539,2.539,0,0,1-3.18-.29l-7.88-7.88a62.264,62.264,0,0,1-16.1,6.67v11.14a2.505,2.505,0,0,1-2.04,2.46A75.774,75.774,0,0,1,121.228,153.179Zm-40.16-42.1a2.5,2.5,0,1,1,3.43.86A2.5,2.5,0,0,1,81.068,111.079Z" data-original="#000000" class="hovered-path active-path" style="fill:#000000" data-old_color="#000000"/><path d="M134.938,119.159a40.375,40.375,0,1,1,40.36-40.37A40.341,40.341,0,0,1,134.938,119.159Zm0-75.75a35.375,35.375,0,1,0,35.36,35.38,35.369,35.369,0,0,0-35.36-35.38Z" data-original="#000000" class="hovered-path active-path" style="fill:#000000" data-old_color="#000000"/><circle cx="174.998" cy="218.291" r="2.5" data-original="#000000" class="hovered-path active-path" style="fill:#000000" data-old_color="#000000"/><path d="M226.9,207.611a13.728,13.728,0,0,0-19.4-19.43l-25.3,24.76a2.5,2.5,0,0,0-.04,3.54,2.574,2.574,0,0,0,3.54.04l25.3-24.77.02-.01a8.726,8.726,0,1,1,12.34,12.34l-35.83,35.27-.02.02a9.9,9.9,0,0,1-6.94,2.87H52.728v-12.85a2.5,2.5,0,1,0-5,0V246.6a1.229,1.229,0,0,1-1.23,1.23H28.578a2.5,2.5,0,0,0,0,5H46.5a6.233,6.233,0,0,0,6.2-5.59H180.568a14.7,14.7,0,0,0,10.47-4.33l35.85-35.28Z" data-original="#000000" class="hovered-path active-path" style="fill:#000000" data-old_color="#000000"/><path d="M25.078,189.441a2.5,2.5,0,0,0,2.5,2.5H46.5a1.238,1.238,0,0,1,1.23,1.24v16.21a2.5,2.5,0,0,0,5,0v-8h1.99a24.468,24.468,0,0,0,19.18-9.28,39.362,39.362,0,0,1,30.38-14.26h42.49a7.747,7.747,0,0,1,7.72,7.91,7.84,7.84,0,0,1-7.93,7.53h-20.1a13.779,13.779,0,0,0-13.74,14.4,13.948,13.948,0,0,0,14.05,13.1H165a2.5,2.5,0,0,0,0-5h-38.23a8.964,8.964,0,0,1-9.05-8.34,8.77,8.77,0,0,1,8.74-9.15h20.1a12.726,12.726,0,1,0,.21-25.45h-42.49a44.491,44.491,0,0,0-34.23,16.07l-.04.05a19.336,19.336,0,0,1-15.29,7.42h-1.99v-3.21a6.246,6.246,0,0,0-6.23-6.24H27.578A2.507,2.507,0,0,0,25.078,189.441Z" data-original="#000000" class="hovered-path active-path" style="fill:#000000" data-old_color="#000000"/><circle cx="50.228" cy="219.391" r="2.5" data-original="#000000" class="hovered-path active-path" style="fill:#000000" data-old_color="#000000"/><path d="M130.056,68.894H146a2.5,2.5,0,0,0,0-5H137.43V58.816a2.5,2.5,0,0,0-5,0v5.078h-2.374a8.7,8.7,0,0,0,0,17.4h9.749a3.7,3.7,0,0,1,0,7.4H123.858a2.5,2.5,0,0,0,0,5h8.572v5.082a2.5,2.5,0,0,0,5,0V93.687h2.375a8.7,8.7,0,0,0,0-17.4h-9.749a3.7,3.7,0,0,1,0-7.4Z" data-original="#000000" class="hovered-path active-path" style="fill:#000000" data-old_color="#000000"/></g> </svg>
