<?xml version="1.0"?>
<svg xmlns="http://www.w3.org/2000/svg" id="Layer_3" enable-background="new 0 0 64 64" height="512px" viewBox="0 0 64 64" width="512px" class=""><g><path d="m32 20c-6.617 0-12 5.383-12 12s5.383 12 12 12 12-5.383 12-12-5.383-12-12-12zm-2 10v-2c0-1.103.897-2 2-2s2 .897 2 2v2c0 1.103-.897 2-2 2s-2-.897-2-2zm5 4c1.654 0 3 1.346 3 3v1h-12v-1c0-1.654 1.346-3 3-3zm-8.974 6h11.948c-1.669 1.25-3.733 2-5.974 2s-4.305-.75-5.974-2zm13.974-2.026v-.974c0-2.613-2.022-4.74-4.579-4.957.359-.6.579-1.294.579-2.043v-2c0-2.206-1.794-4-4-4s-4 1.794-4 4v2c0 .749.22 1.443.579 2.043-2.557.217-4.579 2.344-4.579 4.957v.974c-1.25-1.669-2-3.733-2-5.974 0-5.514 4.486-10 10-10s10 4.486 10 10c0 2.241-.75 4.305-2 5.974z" data-original="#000000" class="active-path" data-old_color="#000000" fill="#FFFFFF"/><path d="m54 41c4.963 0 9-4.037 9-9 0-4.962-4.037-9-9-9-.138 0-.272.015-.408.021l-3.019-5.283c2.645-1.57 4.427-4.446 4.427-7.738 0-4.962-4.037-9-9-9-4.625 0-8.442 3.507-8.941 8h-10.118c-.499-4.493-4.316-8-8.941-8-4.963 0-9 4.038-9 9 0 2.98 1.462 5.619 3.701 7.258l-3.299 5.772c-4.684.31-8.402 4.209-8.402 8.97s3.718 8.66 8.402 8.97l3.298 5.772c-2.238 1.638-3.7 4.277-3.7 7.258 0 4.963 4.037 9 9 9 4.625 0 8.442-3.507 8.941-8h10.118c.499 4.493 4.316 8 8.941 8 4.963 0 9-4.037 9-9 0-3.292-1.782-6.169-4.427-7.738l3.019-5.283c.136.006.27.021.408.021zm-4.889-4h9.779c-1.263 1.235-2.988 2-4.889 2s-3.627-.765-4.89-2zm11.889-5c0 1.074-.251 2.089-.685 3h-1.315v-6h-2v6h-2v-4h-2v4h-2v-2h-2v2h-1.315c-.434-.911-.685-1.926-.685-3 0-3.86 3.141-7 7-7s7 3.14 7 7zm-10.111-17c-1.263 1.235-2.988 2-4.889 2s-3.627-.765-4.889-2zm-4.889-12c3.859 0 7 3.14 7 7 0 1.075-.251 2.089-.685 3h-1.315v-6h-2v6h-2v-4h-2v4h-2v-2h-2v2h-1.315c-.434-.911-.685-1.925-.685-3 0-3.86 3.141-7 7-7zm-28 0c3.859 0 7 3.14 7 7 0 1.075-.251 2.089-.685 3h-1.315v-6h-2v6h-2v-4h-2v4h-2v-2h-2v2h-1.315c-.434-.911-.685-1.925-.685-3 0-3.86 3.141-7 7-7zm4.889 12c-1.263 1.235-2.988 2-4.889 2s-3.627-.765-4.889-2zm-12.889 10c3.859 0 7 3.14 7 7 0 1.074-.251 2.089-.685 3h-1.315v-6h-2v6h-2v-4h-2v4h-2v-2h-2v2h-1.315c-.434-.911-.685-1.926-.685-3 0-3.86 3.141-7 7-7zm0 14c-1.902 0-3.626-.765-4.889-2h9.779c-1.264 1.235-2.988 2-4.89 2zm3.111 20h9.779c-1.263 1.235-2.988 2-4.889 2s-3.627-.765-4.89-2zm11.204-2h-1.315v-6h-2v6h-2v-4h-2v4h-2v-2h-2v2h-1.315c-.434-.911-.685-1.926-.685-3 0-3.859 3.141-7 7-7s7 3.141 7 7c0 1.074-.251 2.089-.685 3zm16.796 2h9.779c-1.263 1.235-2.988 2-4.889 2s-3.627-.765-4.89-2zm11.889-5c0 1.074-.251 2.089-.685 3h-1.315v-6h-2v6h-2v-4h-2v4h-2v-2h-2v2h-1.315c-.434-.911-.685-1.926-.685-3 0-3.859 3.141-7 7-7s7 3.141 7 7zm-4.255-8.569c-.866-.278-1.788-.431-2.745-.431-4.625 0-8.442 3.507-8.941 8h-10.118c-.499-4.493-4.316-8-8.941-8-1.267 0-2.473.266-3.568.741l-2.798-4.897c4.184-.772 7.366-4.44 7.366-8.844s-3.182-8.072-7.366-8.844l2.798-4.897c1.095.475 2.301.741 3.568.741 4.625 0 8.442-3.507 8.941-8h10.118c.499 4.493 4.316 8 8.941 8 .957 0 1.879-.153 2.745-.431l2.74 4.796c-3.741 1.091-6.485 4.546-6.485 8.635s2.744 7.544 6.485 8.636z" data-original="#000000" class="active-path" data-old_color="#000000" fill="#FFFFFF"/></g> </svg>
